<?xml version="1.0" encoding="UTF-8"?>
<!DOCTYPE svg  PUBLIC '-//W3C//DTD SVG 20010904//EN'  'http://www.w3.org/TR/2001/REC-SVG-20010904/DTD/svg10.dtd'>
<svg width="710px" height="149px" version="1.0" viewBox="0 0 7100 1490" xmlns="http://www.w3.org/2000/svg">
  <!-- Hebrew text kept transparent -->
  <g fill="#fffefe" opacity="0">
    <path d="m640 820v-310h-55-55v-105-105h205 205v105 105h-50-50v310 310h-100-100v-310z"/>
    <path d="m1140 820v-310h-45-45v-105-105h145 145v415 415h-100-100v-310z"/>
    <path d="m1910 1020v-110h70 70v-200-200h-65-65v-105-105h165 165v415 415h-170-170v-110z"/>
    <path d="m1577 803c-4-3-7-71-7-150v-143h-45-45v-105-105h150 150v255 255h-98c-54 0-102-3-105-7z"/>
  </g>

  <!-- All other shapes forced to white -->
  <g fill="#FFFFFF">
    <path d="m3080 920v-400h-50-50v-115-115h155 155v515 515h-105-105v-400z"/>
    <path d="m4570 970v-350h105 105v350 350h-105-105v-350z"/>
    <path d="m3970 1025v-115h90c87 0 90-1 90-22 0-13 7-86 15-163s15-155 15-172v-33h-170-170v-215-215h105 104l3 98 3 97 187 3 188 2-6 43c-3 23-24 213-47 422l-42 380-183 3-182 2v-115z"/>
    <path d="m4880 1025v-115h48 49l12-142c7-79 15-167 18-195l6-53h-232-231v-115-115h350 350v23c0 12-20 199-45 415s-45 397-45 402c0 6-57 10-140 10h-140v-115z"/>
    <path d="m5412 763c-18-208-36-399-39-425l-6-48h112c95 0 111 2 111 16 0 34 21 311 26 342 3 17 11 32 18 32 9 0 19-46 35-162 12-90 24-178 28-195l5-33h104c57 0 104 3 104 6 0 10-70 468-75 492-5 21-10 22-108 22h-102l3 50 4 50h152 152l42-287c23-159 42-298 42-310 0-22 3-23 110-23 101 0 110 2 110 19 0 10-27 199-60 421s-60 404-60 406-152 4-338 4h-338l-32-377z"/>
    <path d="m6370 931v-210l75-61c41-34 75-63 75-66 0-2-38-62-85-132s-85-137-85-149c0-23 2-23 118-23h118l59 93c163 254 166 258 181 246 11-9 14-47 14-175v-164h105 105v185 184l-72 63c-40 34-72 66-70 72 2 5 46 79 98 163s94 160 94 168c0 13-20 15-119 15h-120l-122-200c-67-110-127-199-133-197-7 2-13 73-16 198l-5 194-107 3-108 3v-210z"/>
    <path d="m3508 823l-3-308-47-3-48-3v-110-109h155 155v420 420h-105-105l-2-307z"/>
  </g>
  <g fill="#FFFFFF">
    <path d="m5 1453c4-21 79-355 168-743l162-705 1233-3c982-2 1232 0 1232 10 0 7-75 343-167 746l-168 732h-1233-1234l7-37zm835-633v-310h50 50v-105-105h-205-205v105 105h55 55v310 310h100 100v-310zm500-105v-415h-145-145v105 105h45 45v310 310h100 100v-415zm910 0v-415h-165-165v105 105h65 65v200 200h-70-70v110 110h170 170v-415zm-470-160v-255h-150-150v105 105h45 45v143c0 79 3 147 7 150 3 4 51 7 105 7h98v-255z"/>
  </g>
</svg>