<svg viewBox="0 0 158 40" class="w-[160px]" xmlns="http://www.w3.org/2000/svg" fill="#4A4A4A"><path d="m48.531 31v-23.833h4.8334v23.833h-4.8334zm7.1612 0v-17.1h4.3667v2.3h0.1c0.9333-1.5666 2.6-2.7666 4.9667-2.7666 2.1666 0 3.9 1.2 4.7333 3h0.0667c1.1666-1.8667 2.9666-3 5.1333-3 3.6 0 5.6333 2.3333 5.6333 6.0666v11.5h-4.5333v-10.733c0-1.9333-0.9667-2.9333-2.6333-2.9333-1.9 0-3.0667 1.4666-3.0667 3.7333v9.9333h-4.5333v-10.733c0-1.9333-0.9667-2.9333-2.6334-2.9333-1.8333 0-3.0666 1.4666-3.0666 3.7333v9.9333h-4.5334zm37.566 0c-0.2667-0.3333-0.4334-1.1333-0.5334-1.9h-0.0666c-0.8667 1.3-2.1 2.3-5.0334 2.3-3.5 0-5.9666-1.8333-5.9666-5.2333 0-3.7667 3.0666-4.9667 6.8666-5.5 2.8334-0.4 4.1334-0.6333 4.1334-1.9333 0-1.2334-0.9667-2.0334-2.8667-2.0334-2.1333 0-3.1667 0.7667-3.3 2.4h-4.0333c0.1333-3 2.3666-5.6333 7.3666-5.6333 5.1334 0 7.2 2.3 7.2 6.3v8.7c0 1.3 0.2 2.0667 0.6 2.3667v0.1666h-4.3666zm-4.5334-2.7666c2.6 0 4.0334-1.6 4.0334-3.2667v-2.5667c-0.8 0.4667-2.0334 0.7334-3.1667 1-2.3667 0.5334-3.5333 1.0667-3.5333 2.6667s1.0666 2.1667 2.6666 2.1667zm17.715 8.6c-4.667 0-7.5332-2-7.9999-5.3334h4.4999c0.367 1.0667 1.333 1.9 3.433 1.9 2.567 0 3.8-1.2333 3.8-3.5666v-1.8667h-0.1c-1 1.1333-2.3 2-4.466 2-3.8 0-7.5336-3-7.5336-8.1667 0-5.1 3.0666-8.3666 7.3996-8.3666 2.134 0 3.7 0.8333 4.734 2.2666h0.066v-1.8h4.367v15.8c0 2.4-0.767 4.0334-2.033 5.2-1.434 1.3334-3.634 1.9334-6.167 1.9334zm-0.067-10.5c2.867 0 4.034-2.1 4.034-4.6334 0-2.5-1.334-4.6333-4.067-4.6333-2.3 0-3.833 1.8-3.833 4.6667 0 2.9 1.533 4.6 3.866 4.6zm10.186 4.6666v-17.1h4.533v17.1h-4.533zm0-19.767v-4.0667h4.533v4.0667h-4.533zm10.888 2.6666v2.3334h0.1c1.167-1.8334 2.733-2.8 5.067-2.8 3.533 0 5.9 2.6666 5.9 6.4v11.167h-4.534v-10.5c0-1.8333-1.066-3.1333-2.966-3.1333-2 0-3.467 1.6-3.467 3.9333v9.7h-4.533v-17.1h4.433zm20.894 17.6c-5.667 0-8.867-3.9666-8.867-9.0666 0-5.0667 3.434-9 8.434-9 5.5 0 8.433 4.2 8.433 10.3h-12.4c0.333 2.6333 1.8 4.2666 4.367 4.2666 1.766 0 2.8-0.8 3.3-2.1h4.466c-0.633 3.0334-3.333 5.6-7.733 5.6zm-0.367-14.567c-2.4 0-3.566 1.4333-3.966 3.6666h7.6c-0.134-2.1666-1.567-3.6666-3.634-3.6666z"></path><path d="m16.667 3.3332c0.3451 0 0.625-0.27982 0.625-0.625s-0.2799-0.625-0.625-0.625c-0.3452 0-0.625 0.27982-0.625 0.625s0.2798 0.625 0.625 0.625z"></path><path d="m23.125 3.1249c0.2301 0 0.4167-0.18655 0.4167-0.41667s-0.1866-0.41667-0.4167-0.41667-0.4167 0.18655-0.4167 0.41667 0.1866 0.41667 0.4167 0.41667z"></path><path d="m7.7083 6.0415c0 0.34518-0.27982 0.625-0.625 0.625-0.34517 0-0.625-0.27982-0.625-0.625 0-0.34517 0.27983-0.625 0.625-0.625 0.34518 0 0.625 0.27983 0.625 0.625z"></path><path d="m8.5417 12.5c0-1.0356 0.83946-1.875 1.875-1.875-0.80545 0-1.4584-0.65296-1.4584-1.4584 0-0.80541 0.65292-1.4583 1.4584-1.4583 0.8054 0 1.4583 0.65292 1.4583 1.4583 0-0.92047 0.7462-1.6667 1.6667-1.6667 0.6173 0 1.1563 0.33567 1.4443 0.83445 0.1876-0.37818 0.4991-0.68401 0.8815-0.86442-0.397-0.26057-0.6592-0.70969-0.6592-1.22 0-0.80542 0.653-1.4583 1.4584-1.4583s1.4583 0.65292 1.4583 1.4583c0 0.51034-0.2621 0.95946-0.6591 1.22 0.3729 0.176 0.6785 0.47136 0.8674 0.8368 0.189-0.36544 0.4945-0.6608 0.8675-0.8368-0.397-0.26057-0.6591-0.70969-0.6591-1.22 0-0.80542 0.6529-1.4583 1.4583-1.4583s1.4583 0.65292 1.4583 1.4583c0 0.51034-0.2621 0.95946-0.6591 1.22 0.3823 0.18041 0.6938 0.48624 0.8815 0.86442 0.288-0.49878 0.8269-0.83445 1.4443-0.83445 0.9205 0 1.6667 0.74619 1.6667 1.6667 0 0.48783-0.2096 0.92668-0.5437 1.2315 0.3273 0.1426 0.6148 0.3595 0.8413 0.6292 0.3192-0.252 0.7224-0.4023 1.1607-0.4023 1.0355 0 1.875 0.8394 1.875 1.875 0 0.4884-0.1867 0.9332-0.4927 1.2669 0.2598 0.2505 0.4605 0.5618 0.5794 0.911 0.3007-0.4348 0.8029-0.7196 1.3716-0.7196 0.9205 0 1.6667 0.7462 1.6667 1.6667 0 0.6173-0.3357 1.1563-0.8345 1.4443 0.4494 0.223 0.7967 0.6208 0.9527 1.1046 0.2233-0.5189 0.7393-0.8823 1.3401-0.8823 0.8055 0 1.4584 0.6529 1.4584 1.4584 0 0.8054-0.6529 1.4583-1.4584 1.4583-0.6008 0-1.1168-0.3634-1.3401-0.8823-0.1528 0.4738-0.4891 0.8652-0.925 1.0906 0.436 0.2254 0.7722 0.6168 0.925 1.0907 0.2233-0.519 0.7393-0.8823 1.3401-0.8823 0.8055 0 1.4584 0.6529 1.4584 1.4583s-0.6529 1.4583-1.4584 1.4583c-0.6008 0-1.1168-0.3633-1.3401-0.8823-0.156 0.4838-0.5033 0.8817-0.9527 1.1046 0.4988 0.2881 0.8345 0.827 0.8345 1.4444 0 0.9205-0.7462 1.6667-1.6667 1.6667-0.5687 0-1.0709-0.2849-1.3716-0.7197-0.1189 0.3492-0.3196 0.6606-0.5794 0.9111 0.306 0.3337 0.4927 0.7785 0.4927 1.2669 0 1.0355-0.8395 1.875-1.875 1.875-0.4383 0-0.8415-0.1504-1.1607-0.4024-0.2265 0.2698-0.514 0.4866-0.8413 0.6292 0.3341 0.3048 0.5437 0.7437 0.5437 1.2315 0 0.9205-0.7462 1.6667-1.6667 1.6667-0.6174 0-1.1563-0.3357-1.4443-0.8345-0.1877 0.3782-0.4992 0.6841-0.8815 0.8645 0.397 0.2605 0.6591 0.7096 0.6591 1.22 0 0.8054-0.6529 1.4583-1.4583 1.4583s-1.4583-0.6529-1.4583-1.4583c0-0.5104 0.2621-0.9595 0.6591-1.22-0.373-0.176-0.6785-0.4714-0.8675-0.8368-0.1889 0.3654-0.4945 0.6608-0.8674 0.8368 0.397 0.2605 0.6591 0.7096 0.6591 1.22 0 0.8054-0.6529 1.4583-1.4583 1.4583s-1.4584-0.6529-1.4584-1.4583c0-0.5104 0.2622-0.9595 0.6592-1.22-0.3824-0.1805-0.6939-0.4863-0.8815-0.8645-0.288 0.4988-0.827 0.8345-1.4443 0.8345-0.9205 0-1.6667-0.7462-1.6667-1.6667 0-0.4878 0.2096-0.9267 0.5436-1.2315-0.3272-0.1426-0.6147-0.3594-0.8412-0.6292-0.3193 0.252-0.7224 0.4024-1.1607 0.4024-1.0356 0-1.875-0.8395-1.875-1.875 0-0.4383 0.15038-0.8415 0.40237-1.1607-0.26977-0.2265-0.48658-0.514-0.62921-0.8413-0.30479 0.3341-0.74367 0.5437-1.2315 0.5437-0.92047 0-1.6667-0.7462-1.6667-1.6667 0-0.6174 0.33567-1.1563 0.83445-1.4444-0.44939-0.2229-0.79662-0.6208-0.95264-1.1046-0.22335 0.519-0.73932 0.8823-1.3402 0.8823-0.80541 0-1.4583-0.6529-1.4583-1.4583s0.65292-1.4583 1.4583-1.4583c0.60083 0 1.1168 0.3633 1.3402 0.8823 0.15281-0.4739 0.48904-0.8653 0.92502-1.0907-0.43598-0.2254-0.77221-0.6168-0.92502-1.0906-0.22335 0.5189-0.73932 0.8823-1.3402 0.8823-0.80541 0-1.4583-0.6529-1.4583-1.4583 0-0.8055 0.65292-1.4584 1.4583-1.4584 0.60083 0 1.1168 0.3634 1.3402 0.8823 0.15602-0.4838 0.50325-0.8816 0.95264-1.1046-0.49878-0.288-0.83445-0.827-0.83445-1.4443 0-0.9205 0.74619-1.6667 1.6667-1.6667 0.48783 0 0.92671 0.2096 1.2315 0.5436 0.14262-0.3272 0.35944-0.6147 0.62921-0.8412-0.25199-0.3193-0.40237-0.7224-0.40237-1.1607zm1.875-1.875c0.8054 0 1.4583-0.65296 1.4583-1.4584 0 0.48783 0.2096 0.92668 0.5436 1.2315-0.3272 0.1426-0.6147 0.3595-0.8412 0.6292-0.3193-0.252-0.7224-0.4023-1.1607-0.4023zm7.9166 17.5c4.2572 0 7.7084-3.4512 7.7084-7.7084s-3.4512-7.7083-7.7084-7.7083-7.7083 3.4511-7.7083 7.7083 3.4511 7.7084 7.7083 7.7084z" clip-rule="evenodd" fill-rule="evenodd"></path><path d="m8.5417 12.5c0-0.8055-0.65292-1.4584-1.4583-1.4584-0.80541 0-1.4583 0.6529-1.4583 1.4584 0 0.8054 0.65292 1.4583 1.4583 1.4583 0.80542 0 1.4583-0.6529 1.4583-1.4583z"></path><path d="m7.0833 26.875c-0.80541 0-1.4583 0.6529-1.4583 1.4583s0.65292 1.4583 1.4583 1.4583c0.80542 0 1.4583-0.6529 1.4583-1.4583s-0.65292-1.4583-1.4583-1.4583z"></path><path d="m10.417 30.208c0.8054 0 1.4583 0.6529 1.4583 1.4583s-0.6529 1.4584-1.4583 1.4584c-0.80545 0-1.4584-0.653-1.4584-1.4584s0.65292-1.4583 1.4584-1.4583z"></path><path d="m24.792 31.666c0-0.8054 0.6529-1.4583 1.4583-1.4583s1.4583 0.6529 1.4583 1.4583-0.6529 1.4584-1.4583 1.4584-1.4583-0.653-1.4583-1.4584z"></path><path d="m28.125 28.333c0 0.8054 0.6529 1.4583 1.4583 1.4583 0.8055 0 1.4584-0.6529 1.4584-1.4583s-0.6529-1.4583-1.4584-1.4583c-0.8054 0-1.4583 0.6529-1.4583 1.4583z"></path><path d="m29.583 13.958c-0.8054 0-1.4583-0.6529-1.4583-1.4583 0-0.8055 0.6529-1.4584 1.4583-1.4584 0.8055 0 1.4584 0.6529 1.4584 1.4584 0 0.8054-0.6529 1.4583-1.4584 1.4583z"></path><path d="m26.25 10.625c0.8054 0 1.4583-0.65296 1.4583-1.4584 0-0.80541-0.6529-1.4583-1.4583-1.4583s-1.4583 0.65292-1.4583 1.4583c0 0.80542 0.6529 1.4584 1.4583 1.4584z"></path><path d="m7.0833 10.208c0.5753 0 1.0417-0.46638 1.0417-1.0417 0-0.57529-0.46637-1.0417-1.0417-1.0417-0.57529 0-1.0417 0.46637-1.0417 1.0417 0 0.5753 0.46637 1.0417 1.0417 1.0417z"></path><path d="m7.0833 30.625c0.5753 0 1.0417 0.4663 1.0417 1.0416s-0.46637 1.0417-1.0417 1.0417c-0.57529 0-1.0417-0.4664-1.0417-1.0417s0.46637-1.0416 1.0417-1.0416z"></path><path d="m7.7083 34.792c0 0.3452-0.27982 0.625-0.625 0.625-0.34517 0-0.625-0.2798-0.625-0.625s0.27983-0.625 0.625-0.625c0.34518 0 0.625 0.2798 0.625 0.625z"></path><path d="m30.208 6.0415c0 0.34518-0.2798 0.625-0.625 0.625-0.3451 0-0.625-0.27982-0.625-0.625 0-0.34517 0.2799-0.625 0.625-0.625 0.3452 0 0.625 0.27983 0.625 0.625z"></path><path d="m30.208 34.792c0 0.3452-0.2798 0.625-0.625 0.625-0.3451 0-0.625-0.2798-0.625-0.625s0.2799-0.625 0.625-0.625c0.3452 0 0.625 0.2798 0.625 0.625z"></path><path d="m23.125 37.708c0.2301 0 0.4167 0.1865 0.4167 0.4167 0 0.2301-0.1866 0.4166-0.4167 0.4166s-0.4167-0.1865-0.4167-0.4166c0-0.2302 0.1866-0.4167 0.4167-0.4167z"></path><path d="m13.542 3.1249c0.2301 0 0.4166-0.18655 0.4166-0.41667s-0.1865-0.41667-0.4166-0.41667c-0.2302 0-0.4167 0.18655-0.4167 0.41667s0.1865 0.41667 0.4167 0.41667z"></path><path d="m13.542 37.708c0.2301 0 0.4166 0.1865 0.4166 0.4167 0 0.2301-0.1865 0.4166-0.4166 0.4166-0.2302 0-0.4167-0.1865-0.4167-0.4166 0-0.2302 0.1865-0.4167 0.4167-0.4167z"></path><path d="m17.292 38.125c0-0.3452-0.2799-0.625-0.625-0.625-0.3452 0-0.625 0.2798-0.625 0.625 0 0.3451 0.2798 0.625 0.625 0.625 0.3451 0 0.625-0.2799 0.625-0.625z"></path><path d="m20.625 2.7082c0 0.34518-0.2798 0.625-0.625 0.625s-0.625-0.27982-0.625-0.625 0.2798-0.625 0.625-0.625 0.625 0.27982 0.625 0.625z"></path><path d="m0.625 15.208c0.23012 0 0.41667 0.1865 0.41667 0.4167 0 0.2301-0.18655 0.4166-0.41667 0.4166s-0.41667-0.1865-0.41667-0.4166c0-0.2302 0.18655-0.4167 0.41667-0.4167z"></path><path d="m0.625 24.792c0.23012 0 0.41667 0.1866 0.41667 0.4167s-0.18655 0.4167-0.41667 0.4167-0.41667-0.1866-0.41667-0.4167 0.18655-0.4167 0.41667-0.4167z"></path><path d="m0.625 21.458c0.34518 0 0.625 0.2798 0.625 0.625s-0.27982 0.625-0.625 0.625-0.625-0.2798-0.625-0.625 0.27982-0.625 0.625-0.625z"></path><path d="m0.625 18.125c0.34518 0 0.625 0.2798 0.625 0.625 0 0.3451-0.27982 0.625-0.625 0.625s-0.625-0.2799-0.625-0.625c0-0.3452 0.27982-0.625 0.625-0.625z"></path><path d="m36.042 15.208c0.2301 0 0.4166 0.1865 0.4166 0.4167 0 0.2301-0.1865 0.4166-0.4166 0.4166s-0.4167-0.1865-0.4167-0.4166c0-0.2302 0.1866-0.4167 0.4167-0.4167z"></path><path d="m36.042 24.792c0.2301 0 0.4166 0.1866 0.4166 0.4167s-0.1865 0.4167-0.4166 0.4167-0.4167-0.1866-0.4167-0.4167 0.1866-0.4167 0.4167-0.4167z"></path><path d="m36.042 21.458c0.3451 0 0.625 0.2798 0.625 0.625s-0.2799 0.625-0.625 0.625c-0.3452 0-0.625-0.2798-0.625-0.625s0.2798-0.625 0.625-0.625z"></path><path d="m36.042 18.125c0.3451 0 0.625 0.2798 0.625 0.625 0 0.3451-0.2799 0.625-0.625 0.625-0.3452 0-0.625-0.2799-0.625-0.625 0-0.3452 0.2798-0.625 0.625-0.625z"></path><path d="m20.625 38.125c0-0.3452-0.2798-0.625-0.625-0.625s-0.625 0.2798-0.625 0.625c0 0.3451 0.2798 0.625 0.625 0.625s0.625-0.2799 0.625-0.625z"></path><path d="m4.7917 12.5c0 0.4602-0.3731 0.8333-0.83334 0.8333-0.46023 0-0.83333-0.3731-0.83333-0.8333 0-0.4603 0.3731-0.8334 0.83333-0.8334 0.46024 0 0.83334 0.3731 0.83334 0.8334z"></path><path d="m4.7917 28.333c0-0.4602-0.3731-0.8333-0.83334-0.8333-0.46023 0-0.83333 0.3731-0.83333 0.8333s0.3731 0.8333 0.83333 0.8333c0.46024 0 0.83334-0.3731 0.83334-0.8333z"></path><path d="m33.542 12.5c0 0.4602-0.3731 0.8333-0.8334 0.8333-0.4602 0-0.8333-0.3731-0.8333-0.8333 0-0.4603 0.3731-0.8334 0.8333-0.8334 0.4603 0 0.8334 0.3731 0.8334 0.8334z"></path><path d="m33.542 28.333c0-0.4602-0.3731-0.8333-0.8334-0.8333-0.4602 0-0.8333 0.3731-0.8333 0.8333s0.3731 0.8333 0.8333 0.8333c0.4603 0 0.8334-0.3731 0.8334-0.8333z"></path><path d="m33.333 9.1665c0 0.34518-0.2798 0.625-0.625 0.625-0.3451 0-0.625-0.27982-0.625-0.625 0-0.34517 0.2799-0.625 0.625-0.625 0.3452 0 0.625 0.27983 0.625 0.625z"></path><path d="m33.333 31.666c0-0.3452-0.2798-0.625-0.625-0.625-0.3451 0-0.625 0.2798-0.625 0.625s0.2799 0.625 0.625 0.625c0.3452 0 0.625-0.2798 0.625-0.625z"></path><path d="m4.5833 9.1665c0 0.34518-0.27982 0.625-0.625 0.625-0.34517 0-0.625-0.27982-0.625-0.625 0-0.34517 0.27983-0.625 0.625-0.625 0.34518 0 0.625 0.27983 0.625 0.625z"></path><path d="m4.5833 31.666c0-0.3452-0.27982-0.625-0.625-0.625-0.34517 0-0.625 0.2798-0.625 0.625s0.27983 0.625 0.625 0.625c0.34518 0 0.625-0.2798 0.625-0.625z"></path><path d="m30.625 9.1665c0 0.5753-0.4664 1.0417-1.0417 1.0417s-1.0416-0.46638-1.0416-1.0417c0-0.57529 0.4663-1.0417 1.0416-1.0417s1.0417 0.46637 1.0417 1.0417z"></path><path d="m30.625 31.666c0-0.5753-0.4664-1.0416-1.0417-1.0416s-1.0416 0.4663-1.0416 1.0416 0.4663 1.0417 1.0416 1.0417 1.0417-0.4664 1.0417-1.0417z"></path><path d="m14.792 6.0415c0 0.69036-0.5597 1.25-1.25 1.25-0.6904 0-1.25-0.55964-1.25-1.25 0-0.69035 0.5596-1.25 1.25-1.25 0.6903 0 1.25 0.55965 1.25 1.25z"></path><path d="m14.792 34.792c0-0.6903-0.5597-1.25-1.25-1.25-0.6904 0-1.25 0.5597-1.25 1.25 0 0.6904 0.5596 1.25 1.25 1.25 0.6903 0 1.25-0.5596 1.25-1.25z"></path><path d="m3.9583 16.875c0.69036 0 1.25-0.5597 1.25-1.25 0-0.6904-0.55964-1.25-1.25-1.25-0.69035 0-1.25 0.5596-1.25 1.25 0 0.6903 0.55965 1.25 1.25 1.25z"></path><path d="m32.708 16.875c0.6904 0 1.25-0.5597 1.25-1.25 0-0.6904-0.5596-1.25-1.25-1.25-0.6903 0-1.25 0.5596-1.25 1.25 0 0.6903 0.5597 1.25 1.25 1.25z"></path><path d="m11.25 6.0415c0 0.46024-0.3731 0.83334-0.8333 0.83334-0.46027 0-0.83337-0.3731-0.83337-0.83334 0-0.46023 0.3731-0.83333 0.83337-0.83333 0.4602 0 0.8333 0.3731 0.8333 0.83333z"></path><path d="m11.25 34.792c0-0.4602-0.3731-0.8333-0.8333-0.8333-0.46027 0-0.83337 0.3731-0.83337 0.8333 0 0.4603 0.3731 0.8334 0.83337 0.8334 0.4602 0 0.8333-0.3731 0.8333-0.8334z"></path><path d="m27.083 6.0415c0 0.46024-0.3731 0.83334-0.8333 0.83334s-0.8333-0.3731-0.8333-0.83334c0-0.46023 0.3731-0.83333 0.8333-0.83333s0.8333 0.3731 0.8333 0.83333z"></path><path d="m27.083 34.792c0-0.4602-0.3731-0.8333-0.8333-0.8333s-0.8333 0.3731-0.8333 0.8333c0 0.4603 0.3731 0.8334 0.8333 0.8334s0.8333-0.3731 0.8333-0.8334z"></path><path d="m24.375 6.0415c0 0.69036-0.5596 1.25-1.25 1.25s-1.25-0.55964-1.25-1.25c0-0.69035 0.5596-1.25 1.25-1.25s1.25 0.55965 1.25 1.25z"></path><path d="m24.375 34.792c0-0.6903-0.5596-1.25-1.25-1.25s-1.25 0.5597-1.25 1.25c0 0.6904 0.5596 1.25 1.25 1.25s1.25-0.5596 1.25-1.25z"></path><path d="m3.9583 26.458c0.69036 0 1.25-0.5597 1.25-1.25 0-0.6904-0.55964-1.25-1.25-1.25-0.69035 0-1.25 0.5596-1.25 1.25 0 0.6903 0.55965 1.25 1.25 1.25z"></path><path d="m32.708 26.458c0.6904 0 1.25-0.5597 1.25-1.25 0-0.6904-0.5596-1.25-1.25-1.25-0.6903 0-1.25 0.5596-1.25 1.25 0 0.6903 0.5597 1.25 1.25 1.25z"></path></svg>