<svg width="735" height="164" viewBox="0 0 735 164" fill="none" xmlns="http://www.w3.org/2000/svg">
<path d="M81.9782 0C36.7005 0 0 36.618 0 81.8958C0 127.173 36.7005 163.874 81.9782 163.874C127.256 163.874 163.956 127.173 163.956 81.8958C163.956 36.618 127.174 0 81.9782 0ZM65.4836 100.782L35.5459 101.277C35.0511 101.277 34.6387 100.865 34.6387 100.37V70.1846C34.6387 69.4423 35.5459 69.03 36.1232 69.5248L45.9375 79.3391L75.9577 49.3189C76.8649 48.4117 78.267 48.4117 79.1742 49.3189L85.8545 55.9992C86.7617 56.9064 86.7617 58.3085 85.8545 59.2157L55.8343 89.2359L65.9785 99.2976C66.5558 99.8749 66.1434 100.782 65.4012 100.782H65.4836ZM128.328 95.009L117.772 86.0194L87.5864 115.875C86.6792 116.782 85.2772 116.782 84.37 115.875L77.6896 109.112C76.7824 108.205 76.7824 106.803 77.6896 105.895L107.875 76.0402L98.6378 65.2362C98.0605 64.6589 98.4729 63.7517 99.2151 63.7517L128.576 64.1641C129.07 64.1641 129.483 64.5764 129.483 65.0713L129.895 94.5142C129.895 95.2564 128.988 95.6688 128.411 95.0915L128.328 95.009Z" fill="#4A4A4A"/>
<path d="M245.605 49.8137C250.471 46.9271 255.832 45.4426 261.522 45.4426V72.0814H254.429C247.832 72.0814 242.718 73.4835 239.089 76.2876C235.461 79.0916 233.646 83.8751 233.646 90.5554V127.503H208.739V46.3498H233.646V61.6074C236.78 56.659 240.739 52.7003 245.605 49.8137Z" fill="#4A4A4A"/>
<path d="M348.036 91.38H291.707C292.037 97.4831 293.522 101.854 296.326 104.576C299.13 107.215 302.759 108.534 307.13 108.534C311.501 108.534 313.893 107.627 316.284 105.73C318.676 103.916 320.326 101.524 321.068 98.6377H347.377C346.305 104.328 343.995 109.442 340.366 113.978C336.738 118.514 332.202 122.06 326.676 124.617C321.15 127.173 314.965 128.493 308.202 128.493C301.439 128.493 293.192 126.843 287.006 123.462C280.821 120.081 276.037 115.297 272.574 109.029C269.11 102.761 267.378 95.3387 267.378 86.9265C267.378 78.5142 269.11 71.0092 272.574 64.7412C276.037 58.4733 280.821 53.6898 287.006 50.3084C293.192 46.9271 300.285 45.2776 308.202 45.2776C316.119 45.2776 323.295 46.927 329.398 50.226C335.501 53.5249 340.202 58.1434 343.583 64.0815C346.964 70.0195 348.614 76.9473 348.614 84.6997C348.614 92.4522 348.366 88.9883 347.872 91.38H348.036ZM319.336 68.9474C316.367 66.3082 312.738 64.9062 308.367 64.9062C303.996 64.9062 300.037 66.2258 296.986 68.9474C294.017 71.669 292.285 75.6277 291.872 80.906H323.542C323.624 75.5452 322.222 71.5865 319.253 68.9474H319.336Z" fill="#4A4A4A"/>
<path d="M401.314 35.216C397.273 35.216 394.304 36.1232 392.407 37.8551C390.593 39.587 389.52 42.3911 389.355 46.2673H404.036V67.2155H389.355V127.421H364.449V67.2155H354.717V46.2673H364.449V45.3601C364.449 35.2984 367.418 27.4635 373.273 22.0203C379.129 16.577 387.624 13.7729 398.84 13.7729C410.056 13.7729 402.881 13.7729 404.036 13.9379V35.2984L401.232 35.1335H401.314V35.216Z" fill="#4A4A4A"/>
<path d="M491.045 91.38H434.716C435.046 97.4831 436.53 101.854 439.334 104.576C442.138 107.215 445.767 108.534 450.138 108.534C454.509 108.534 456.901 107.627 459.293 105.73C461.684 103.916 463.334 101.524 464.076 98.6377H490.385C489.313 104.328 487.004 109.442 483.375 113.978C479.746 118.514 475.21 122.06 469.684 124.617C464.159 127.173 457.973 128.493 451.21 128.493C444.447 128.493 436.2 126.843 430.015 123.462C423.829 120.081 419.046 115.297 415.582 109.029C412.118 102.761 410.386 95.3387 410.386 86.9265C410.386 78.5142 412.118 71.0092 415.582 64.7412C419.046 58.4733 423.829 53.6898 430.015 50.3084C436.2 46.9271 443.293 45.2776 451.21 45.2776C459.128 45.2776 466.303 46.927 472.406 50.226C478.509 53.5249 483.21 58.1434 486.591 64.0815C489.973 70.0195 491.622 76.9473 491.622 84.6997C491.622 92.4522 491.375 88.9883 490.88 91.38H491.045ZM462.344 68.9474C459.375 66.3082 455.746 64.9062 451.375 64.9062C447.004 64.9062 443.045 66.2258 439.994 68.9474C437.025 71.669 435.293 75.6277 434.881 80.906H466.55C466.55 75.5452 465.231 71.5865 462.262 68.9474H462.344Z" fill="#4A4A4A"/>
<path d="M550.343 106.06V127.421H539.127C529.642 127.421 522.22 125.112 516.941 120.328C511.663 115.627 509.024 107.875 509.024 96.9882V67.133H498.137V46.1848H509.024V26.2263H533.931V46.1848H550.26V67.133H533.931V97.4006C533.931 100.617 534.591 102.844 535.91 104.081C537.23 105.318 539.456 105.978 542.508 105.978H550.343V106.06Z" fill="#4A4A4A"/>
<path d="M627.043 53.9373C634.135 59.7104 638.589 67.6278 640.403 77.6896H614.094C613.352 74.2257 611.703 71.5041 609.311 69.5247C606.919 67.5454 603.868 66.6382 600.157 66.6382C596.445 66.6382 592.239 68.3701 589.353 71.834C586.548 75.2978 585.146 80.3287 585.146 86.9265C585.146 93.5244 586.548 98.5552 589.353 102.019C592.157 105.483 595.785 107.215 600.157 107.215C604.528 107.215 606.919 106.225 609.311 104.328C611.703 102.349 613.352 99.7099 614.094 96.1635H640.403C638.589 106.225 634.135 114.143 627.043 119.916C619.95 125.689 611.208 128.575 600.734 128.575C590.26 128.575 585.724 126.926 579.538 123.545C573.353 120.163 568.569 115.38 565.105 109.112C561.642 102.844 559.91 95.4213 559.91 87.009C559.91 78.5968 561.642 71.0917 565.105 64.8238C568.569 58.5558 573.353 53.7724 579.538 50.391C585.724 47.0096 592.816 45.3601 600.734 45.3601C608.651 45.3601 619.95 48.2467 627.043 54.0198V53.9373Z" fill="#4A4A4A"/>
<path d="M726.753 54.7621C732.196 60.9476 735 69.5248 735 80.3287V127.421H710.093V83.2153C710.093 77.7721 708.691 73.566 705.805 70.5144C702.918 67.4629 699.124 65.896 694.423 65.896C689.723 65.896 685.351 67.4629 682.382 70.6794C679.413 73.8958 677.929 78.4319 677.929 84.3699V127.421H653.022V19.876H677.929V61.195C680.238 56.3291 683.702 52.5353 688.32 49.7312C692.939 46.9271 698.3 45.5251 704.568 45.5251C713.887 45.5251 721.31 48.6591 726.753 54.8446V54.7621Z" fill="#4A4A4A"/>
</svg>
